<?xml version="1.0" standalone="no"?>
<!DOCTYPE svg PUBLIC "-//W3C//DTD SVG 20010904//EN"
 "http://www.w3.org/TR/2001/REC-SVG-20010904/DTD/svg10.dtd">
<svg version="1.0" xmlns="http://www.w3.org/2000/svg"
 width="700.000000pt" height="700.000000pt" viewBox="0 0 700.000000 700.000000"
 preserveAspectRatio="xMidYMid meet">
<metadata>
Created by potrace 1.14, written by Peter Selinger 2001-2017
</metadata>
<g transform="translate(0.000000,700.000000) scale(0.100000,-0.100000)"
fill="#000000" stroke="none">
<path d="M50 6206 c8 -7 1345 -820 2971 -1805 l2956 -1792 -221 -393 -221
-393 -1145 -191 c-629 -105 -1146 -189 -1148 -187 -3 2 43 390 101 862 58 472
105 859 104 860 -4 3 -1357 -2362 -1357 -2371 0 -3 977 -5 2171 -4 l2172 3
262 985 c241 906 261 986 246 1002 -9 9 -1040 787 -2291 1727 l-2275 1711
-1170 0 c-986 0 -1167 -2 -1155 -14z"/>
</g>
</svg>
